<svg data-v-2cb57da0="" version="1.0" xmlns="http://www.w3.org/2000/svg" xmlns:xlink="http://www.w3.org/1999/xlink" width="100%" height="100%" viewBox="0 0 340.000000 250.000000" preserveAspectRatio="xMidYMid meet" color-interpolation-filters="sRGB" style="margin: auto;"><rect data-v-2cb57da0="" x="0" y="0" width="100%" height="100%" fill="#ffffff" fill-opacity="1" class="background"></rect> <rect data-v-2cb57da0="" x="0" y="0" width="100%" height="100%" fill="url(#watermark)" fill-opacity="1" class="watermarklayer"></rect> <g data-v-2cb57da0="" class="iconmbgsvg" transform="translate(108.54125118255615,68.9143295288086)"><g fill="#000000" hollow-target="textNormalTran"><g opacity="0.55" transform="translate(5.209999084472656,0)"><g><rect fill="#000000" fill-opacity="0" stroke-width="2" x="0" y="0" width="112.5" height="112.17133797971941" class="image-rect"></rect> <svg x="0" y="0" width="112.5" height="112.17133797971941" filtersec="colorsb9515144811" class="image-svg-svg primary" style="overflow: visible;"><svg xmlns="http://www.w3.org/2000/svg" viewBox="-0.0011577606201171875 -0.0031328201293945312 147.15858459472656 146.7286834716797"><path d="M11.23 50.82c0 12.53 7.83 22.25 20.73 25.63 6.75 1.77 13.71 2.81 19.56 7.16 9.68 7.2 12.29 17.22 11.68 28.56a28.68 28.68 0 0 1-1.89 8.4c-.31.85-.76 1.82-1.71 1.85s-.79-1.13-1-1.81c-4.36-13.4-14.65-20-27.29-24.15-6.22-2-12.86-2.48-18.81-5.54C3.31 86.21-1.39 77.06.36 66.84c1.2-7 3.34-13.59 8-19.14.6-.71 1-2.14 2.15-1.8 1.43.44.62 1.9.74 2.92a19.06 19.06 0 0 1-.02 2z" fill="#61c4dc"></path><path d="M147.15 76.54c-.28 8.4-3.45 15.75-8.24 22.5-.5.69-1.06 1.65-2.08 1.38s-.62-1.3-.56-2c1.29-14.91-7.54-24.7-20.69-28.6-4.58-1.35-9.31-2-13.8-3.8C85.59 59.43 81 39.88 86.26 26.08c.26-.67.39-1.67 1.38-1.66s1.06 1 1.27 1.69c3.32 11.37 11.82 17.57 22 22.07 6.24 2.76 13 3.55 19.5 5.47 10.91 3.24 16.99 11.56 16.74 22.89z" fill="#6eb823"></path><path d="M51.29 135.89c12.85-.27 22.51-8.24 26-21.37 1.25-4.7 1.77-9.61 4-14.07A29.66 29.66 0 0 1 112.38 84a41.49 41.49 0 0 1 8.77 1.78c.67.24 1.25.49 1.29 1.3s-.46 1-1 1.15c-17.7 5.65-23.25 20.21-26.74 36.32-1.51 7-4 13.57-10 17.95-5.81 4.23-12.51 5-19.43 3.56a41.47 41.47 0 0 1-16.4-7c-.91-.66-2.59-1.12-2-2.58.5-1.23 2-.34 3-.49a9.84 9.84 0 0 1 1.42-.1z" fill="#f39633"></path><path d="M75.79.05C85 0 92.45 3.1 99.29 8c.7.5 1.8.88 1.47 1.94s-1.51.59-2.32.57c-9.9-.32-18.08 2.94-23.82 11.36-3.62 5.28-4.85 11.37-6.25 17.43-4.15 18.07-19.61 24.89-35 23A27.6 27.6 0 0 1 26 60.47c-.6-.25-1.35-.44-1.3-1.27s.87-.89 1.49-1.06c13.83-4 20.26-14.71 24.38-27.33 1.61-4.95 2.47-10.14 4-15.11C57.38 6.79 65.24-.71 75.79.05z" fill="#e62776"></path><path d="M29.55 38.17c-2.74 4.59-3.5 9.64-4.43 14.85-2.23-1-2.1-2.9-2.61-4.39C17.16 33 21.5 21.19 35.84 12.69A59.53 59.53 0 0 1 53.66 6.2c-2 2.88-4.43 5.36-5.82 8.62-2.37 5.58-3.47 11.45-4.61 17.34-1.44 7.39-4.52 13.92-10.39 18.89-.66.56-1.22 1.44-2.26 1.11-1.3-.41-1-1.59-1-2.53-.05-3.82-.03-7.63-.03-11.46z" fill="#e62776"></path><path d="M94.92 23.9c8.83-3.87 17.58-5.65 26.55-1.21a26.49 26.49 0 0 1 8.26 6.63c5.19 6 8.32 13.09 10.28 20.73.15.6.55 1.34-.28 1.74-.65.32-1-.34-1.37-.68-5.75-4.87-12.75-6.64-19.91-7.87-8.4-1.44-16.22-3.93-22-10.63-.61-.7-1.82-1.34-1.29-2.46s1.78-.66 2.72-.67c4.38-.05 8.76 0 13.16-.28-5.04-2.78-10.83-3.31-16.12-5.3z" fill="#6eb823"></path><path d="M117.72 109.6a38.32 38.32 0 0 0 4.2-12.22c.17-.87.18-2 1.21-2.14s1.11 1.15 1.39 2c3.41 10 3.75 19.65-3.41 28.36-4.88 5.93-11.39 9.49-18.51 11.92-2 .68-4.63 2.87-6.13 1.07-1.26-1.53 1.63-3.41 2.54-5.19 2.67-5.23 3.92-10.83 5-16.52 1.4-7.66 3.77-14.86 9.68-20.37.88-.83 1.79-2 3.12-1.48s.9 2.14.92 3.29c.03 3.44-.01 6.93-.01 11.28z" fill="#f39633"></path><path d="M8.19 95.05c6.68 5.42 14.7 7.3 22.91 8.66 7.15 1.19 13.62 3.83 18.85 9 .9.88 2.34 2 1.82 3.26s-2.34.86-3.62.93c-4.29.23-8.57-.15-12.95-.25 5.29 3.24 11.35 4 17.78 5.59a29.42 29.42 0 0 1-14.16 3.88c-10.85.55-18.71-4.64-24.28-13.51-3.3-5.26-6-10.84-6.79-17.16z" fill="#61c4dc"></path><path d="M7.75 95.43c-.36-.38-.83-.87-.18-1.22.36-.19.54.45.62.84z" fill="#61c4dc"></path></svg></svg> <!----></g></g> <g transform="translate(0,25.824419021606445)"><g data-gra="path-name" fill-rule="" class="tp-name" transform="translate(0,0)"><g transform="scale(1)"><g><path d="M43.42 0.07L4.62 0.07Q4.55 0.07 4.55 0L4.55 0 4.55-45.44Q4.55-45.5 4.62-45.5L4.62-45.5 13.71-45.5Q13.71-45.5 13.71-45.44L13.71-45.44 13.71-9.17 43.42-9.17Q43.42-9.17 43.42-9.1L43.42-9.1 43.42 0Q43.42 0.07 43.42 0.07L43.42 0.07ZM79.89-45.44L89.7-14.95 99.52-45.44 99.52-45.5 109.07-45.5 109.14-45.5 109.14-45.44 94.51 0 94.45 0.07 84.89 0.07 84.89 0 81.97-9.04 52.65-9.04Q52.59-9.04 52.59-9.1L52.59-9.1 52.59-18.2Q52.59-18.2 52.65-18.2L52.65-18.2 78.98-18.2 76.12-27.23 52.65-27.23Q52.59-27.23 52.59-27.3L52.59-27.3 52.59-36.34Q52.59-36.4 52.65-36.4L52.65-36.4 73.13-36.4 70.27-45.44 70.27-45.5 70.27-45.5 79.82-45.5 79.89-45.44ZM127.47 0.07L118.36 0.07Q118.3 0.07 118.3 0L118.3 0 118.3-45.44Q118.3-45.5 118.36-45.5L118.36-45.5 127.47-45.5Q127.47-45.5 127.47-45.44L127.47-45.44 127.47 0Q127.47 0.07 127.47 0.07L127.47 0.07Z" transform="translate(-4.550000190734863, 45.5)"></path></g> <!----> <!----> <!----> <!----> <!----> <!----> <!----></g></g> <g data-gra="path-slogan" fill-rule="" class="tp-slogan" fill="#000000" transform="translate(-12.675003051757812,51.56999969482422)"><rect width="0"></rect> <rect x="151.27000427246094" width="0"></rect> <g transform="translate(0,0)"><g transform="scale(1)"><path d="M6.42-3.89L2.20-3.89L2.20 0L1.03 0L1.03-8.58L6.98-8.58L6.98-7.59L2.20-7.59L2.20-4.92L6.42-4.92L6.42-3.89ZM12.28-3.70L9.47-3.70L9.47 0L8.30 0L8.30-8.58L12.28-8.58Q15.14-8.58 15.14-6.28L15.14-6.28Q15.14-4.88 13.92-4.22L13.92-4.22Q14.95-3.94 14.95-2.58L14.95-2.58L15.05-1.03Q15-0.38 15.47-0.19L15.47-0.19L15.47 0L14.02 0Q13.88-0.61 13.83-2.16L13.83-2.16Q13.88-3.70 12.28-3.70L12.28-3.70ZM12.38-7.64L9.47-7.64L9.47-4.69L12.19-4.69Q13.92-4.69 13.92-6.19L13.92-6.19Q13.92-7.64 12.38-7.64L12.38-7.64ZM23.58-4.27L23.58-4.27Q23.39-7.64 20.58-7.83L20.58-7.83Q17.72-7.69 17.58-4.27L17.58-4.27Q17.72-0.94 20.58-0.80L20.58-0.80Q23.39-0.98 23.58-4.27ZM24.75-4.27L24.75-4.27Q24.47 0 20.58 0.14L20.58 0.14Q16.64 0 16.36-4.27L16.36-4.27Q16.59-8.72 20.58-8.81L20.58-8.81Q24.47-8.67 24.75-4.27ZM27.52-8.58L31.83-1.64L31.83-8.58L32.95-8.58L32.95 0L31.64 0L27.28-6.94L27.23-6.94L27.23 0L26.11 0L26.11-8.58L27.52-8.58ZM36.94-7.59L34.03-7.59L34.03-8.58L40.97-8.58L40.97-7.59L38.06-7.59L38.06 0L36.94 0L36.94-7.59ZM47.63-3.47L47.63-2.58L41.58-2.58L41.58-3.47L47.63-3.47ZM50.30-1.03L55.45-1.03L55.45 0L49.13 0L49.13-8.58L55.36-8.58L55.36-7.59L50.30-7.59L50.30-4.92L54.98-4.92L54.98-3.89L50.30-3.89L50.30-1.03ZM58.36-8.58L62.67-1.64L62.67-8.58L63.80-8.58L63.80 0L62.48 0L58.13-6.94L58.08-6.94L58.08 0L56.95 0L56.95-8.58L58.36-8.58ZM69.09 0L65.63 0L65.63-8.58L69.14-8.58Q72.61-8.39 72.75-4.41L72.75-4.41Q72.56-0.09 69.09 0L69.09 0ZM68.95-7.64L66.80-7.64L66.80-0.98L69.05-0.98Q71.48-1.13 71.58-4.31L71.58-4.31Q71.53-7.55 68.95-7.64L68.95-7.64ZM81.05 0L77.58 0L77.58-8.58L81.09-8.58Q84.56-8.39 84.70-4.41L84.70-4.41Q84.52-0.09 81.05 0L81.05 0ZM80.91-7.64L78.75-7.64L78.75-0.98L81-0.98Q83.44-1.13 83.53-4.31L83.53-4.31Q83.48-7.55 80.91-7.64L80.91-7.64ZM87.47-1.03L92.63-1.03L92.63 0L86.30 0L86.30-8.58L92.53-8.58L92.53-7.59L87.47-7.59L87.47-4.92L92.16-4.92L92.16-3.89L87.47-3.89L87.47-1.03ZM94.78-8.58L97.22-1.27L99.70-8.58L101.02-8.58L97.88 0L96.61 0L93.47-8.58L94.78-8.58ZM103.41-1.03L108.56-1.03L108.56 0L102.23 0L102.23-8.58L108.47-8.58L108.47-7.59L103.41-7.59L103.41-4.92L108.09-4.92L108.09-3.89L103.41-3.89L103.41-1.03ZM110.06-8.58L111.23-8.58L111.23-1.03L115.59-1.03L115.59 0L110.06 0L110.06-8.58ZM123.52-4.27L123.52-4.27Q123.33-7.64 120.52-7.83L120.52-7.83Q117.66-7.69 117.52-4.27L117.52-4.27Q117.66-0.94 120.52-0.80L120.52-0.80Q123.33-0.98 123.52-4.27ZM124.69-4.27L124.69-4.27Q124.41 0 120.52 0.14L120.52 0.14Q116.58 0 116.30-4.27L116.30-4.27Q116.53-8.72 120.52-8.81L120.52-8.81Q124.41-8.67 124.69-4.27ZM129.70-7.64L127.36-7.64L127.36-4.64L129.66-4.64Q131.44-4.64 131.44-6.19L131.44-6.19Q131.44-7.59 129.70-7.64L129.70-7.64ZM130.08-3.61L127.36-3.61L127.36 0L126.19 0L126.19-8.58L130.08-8.58Q132.52-8.48 132.61-6.19L132.61-6.19Q132.47-3.70 130.08-3.61L130.08-3.61ZM135.33-1.03L140.48-1.03L140.48 0L134.16 0L134.16-8.58L140.39-8.58L140.39-7.59L135.33-7.59L135.33-4.92L140.02-4.92L140.02-3.89L135.33-3.89L135.33-1.03ZM146.11-3.70L143.30-3.70L143.30 0L142.13 0L142.13-8.58L146.11-8.58Q148.97-8.58 148.97-6.28L148.97-6.28Q148.97-4.88 147.75-4.22L147.75-4.22Q148.78-3.94 148.78-2.58L148.78-2.58L148.88-1.03Q148.83-0.38 149.30-0.19L149.30-0.19L149.30 0L147.84 0Q147.70-0.61 147.66-2.16L147.66-2.16Q147.70-3.70 146.11-3.70L146.11-3.70ZM146.20-7.64L143.30-7.64L143.30-4.69L146.02-4.69Q147.75-4.69 147.75-6.19L147.75-6.19Q147.75-7.64 146.20-7.64L146.20-7.64Z" transform="translate(-1.03125, 8.8125)"></path></g></g></g></g></g></g><defs v-gra="od"></defs></svg>
